<svg width="30" height="30" viewBox="0 0 30 30" fill="none" xmlns="http://www.w3.org/2000/svg">
<path d="M25 10H17.985L19.3888 5.79125C19.6412 5.03125 19.5138 4.18875 19.045 3.53875C18.5763 2.88875 17.8163 2.5 17.015 2.5H15C14.6287 2.5 14.2775 2.665 14.0387 2.95L8.16375 10H5C3.62125 10 2.5 11.1213 2.5 12.5V23.75C2.5 25.1287 3.62125 26.25 5 26.25H21.6337C22.1424 26.2483 22.6385 26.0923 23.0565 25.8026C23.4746 25.5129 23.7948 25.1031 23.975 24.6275L27.4212 15.4387C27.4736 15.2984 27.5002 15.1498 27.5 15V12.5C27.5 11.1213 26.3787 10 25 10ZM5 12.5H7.5V23.75H5V12.5ZM25 14.7738L21.6337 23.75H10V11.7025L15.585 5H17.0175L15.065 10.8537C15.0016 11.0416 14.9839 11.2419 15.0134 11.438C15.0429 11.6341 15.1187 11.8204 15.2346 11.9813C15.3504 12.1422 15.503 12.2732 15.6796 12.3635C15.8562 12.4537 16.0517 12.5005 16.25 12.5H25V14.7738Z" fill="#565656"/>
</svg>
