<svg width="22" height="20" viewBox="0 0 22 20" fill="none" xmlns="http://www.w3.org/2000/svg">
<g clip-path="url(#clip0_228_701)">
<path d="M20.7701 11.2344C21.4194 11.2344 21.9924 10.6875 21.9924 9.98047C22.0306 9.62891 21.8778 9.31641 21.5722 9.04297L19.5556 7.22656V2.5C19.5556 1.80859 19.0094 1.25 18.3333 1.25H17.1111C16.4351 1.25 15.8889 1.80859 15.8889 2.5V3.93359L11.8212 0.273438C11.592 0.078125 11.2865 0 11.0191 0C10.7517 0 10.4462 0.0390625 10.1788 0.3125L0.381944 9.04297C0.114583 9.31641 0 9.62891 0 9.98047C0 10.6836 0.534722 11.2344 1.22222 11.2344H2.44444V17.5C2.44444 18.8789 3.54063 20 4.88889 20H17.1302C18.4861 20 19.5823 18.875 19.5747 17.4883L19.5479 11.2305H20.7701V11.2344ZM11 11.25C9.65174 11.25 8.55556 10.1289 8.55556 8.75C8.55556 7.37109 9.65174 6.25 11 6.25C12.3483 6.25 13.4444 7.37109 13.4444 8.75C13.4444 10.1289 12.3483 11.25 11 11.25ZM6.72222 15.625C6.72222 13.8984 8.08958 12.5 9.77778 12.5H12.2222C13.9104 12.5 15.2778 13.8984 15.2778 15.625C15.2778 15.9688 15.0028 16.25 14.6667 16.25H7.33333C6.99722 16.25 6.72222 15.9688 6.72222 15.625Z" fill="black"/>
</g>
<defs>
<clipPath id="clip0_228_701">
<rect width="22" height="20" fill="white"/>
</clipPath>
</defs>
</svg>
