<svg width="22" height="22" viewBox="0 0 22 22" fill="none" xmlns="http://www.w3.org/2000/svg">
<path d="M4.69808 4.125C3.93834 4.125 3.20973 4.4268 2.67251 4.96402C2.1353 5.50123 1.8335 6.22985 1.8335 6.98958V8.47917H20.1668V6.98958C20.1668 6.22985 19.865 5.50123 19.3278 4.96402C18.7906 4.4268 18.062 4.125 17.3022 4.125H4.69808ZM1.8335 15.0104V9.625H20.1668V15.0104C20.1668 15.7702 19.865 16.4988 19.3278 17.036C18.7906 17.5732 18.062 17.875 17.3022 17.875H4.69808C3.93834 17.875 3.20973 17.5732 2.67251 17.036C2.1353 16.4988 1.8335 15.7702 1.8335 15.0104ZM14.3231 13.5208C14.1711 13.5208 14.0254 13.5812 13.918 13.6886C13.8105 13.7961 13.7502 13.9418 13.7502 14.0938C13.7502 14.2457 13.8105 14.3914 13.918 14.4989C14.0254 14.6063 14.1711 14.6667 14.3231 14.6667H16.8439C16.9959 14.6667 17.1416 14.6063 17.249 14.4989C17.3565 14.3914 17.4168 14.2457 17.4168 14.0938C17.4168 13.9418 17.3565 13.7961 17.249 13.6886C17.1416 13.5812 16.9959 13.5208 16.8439 13.5208H14.3231Z" fill="black"/>
</svg>
