<svg width="22" height="22" viewBox="0 0 22 22" fill="none" xmlns="http://www.w3.org/2000/svg">
<path d="M11.0002 1.83334C5.94016 1.83334 1.8335 5.94001 1.8335 11C1.8335 16.06 5.94016 20.1667 11.0002 20.1667C16.0602 20.1667 20.1668 16.06 20.1668 11C20.1668 5.94001 16.0602 1.83334 11.0002 1.83334ZM11.0002 5.50001C12.7693 5.50001 14.2085 6.93918 14.2085 8.70834C14.2085 10.4775 12.7693 11.9167 11.0002 11.9167C9.231 11.9167 7.79183 10.4775 7.79183 8.70834C7.79183 6.93918 9.231 5.50001 11.0002 5.50001ZM11.0002 18.3333C9.13933 18.3333 6.93933 17.5817 5.37183 15.6933C6.97747 14.4336 8.95931 13.7489 11.0002 13.7489C13.041 13.7489 15.0229 14.4336 16.6285 15.6933C15.061 17.5817 12.861 18.3333 11.0002 18.3333Z" fill="black"/>
</svg>
