<svg width="24" height="24" viewBox="0 0 24 24" fill="none" xmlns="http://www.w3.org/2000/svg">
<path d="M8.90398 16.5H12.522C12.5076 16.6663 12.5003 16.8331 12.5 17C12.5 18.201 12.957 19.361 13.772 20.488C13.232 21.447 12.615 21.999 12 21.999C10.803 21.999 9.59998 19.905 8.96198 16.795L8.90398 16.501V16.5ZM8.67398 15H12.874C13.366 13.7446 14.3004 12.7127 15.501 12.099V12.001C15.501 11.315 15.475 10.646 15.425 10.001H8.57498L8.54198 10.489C8.45509 11.9937 8.49926 13.503 8.67398 15V15ZM18 11.5C18.7335 11.499 19.4597 11.6452 20.1356 11.93C20.8115 12.2148 21.4234 12.6324 21.935 13.158C22.0567 12.1049 22.0119 11.0392 21.802 10H16.932L16.97 10.657C16.985 10.965 16.994 11.277 16.999 11.591C17.323 11.531 17.659 11.5 18 11.5ZM3.06598 16.501H7.37198C7.73598 18.583 8.35498 20.355 9.16398 21.594C6.62151 20.8394 4.48143 19.1085 3.21198 16.78L3.06598 16.501ZM2.19898 10.001H7.06898C6.96437 11.4729 6.9754 12.9508 7.10198 14.421L7.15898 15.001H2.45598C1.94944 13.3828 1.86068 11.6627 2.19798 10.001H2.19898ZM14.944 2.57701L14.836 2.40701C16.3223 2.84816 17.6861 3.62799 18.8202 4.6852C19.9543 5.74242 20.8278 7.04823 21.372 8.50001H16.782C16.466 6.08401 15.825 4.00801 14.944 2.57701V2.57701ZM9.04198 2.44401L9.16398 2.40701C8.28298 3.75701 7.62798 5.73601 7.27998 8.06001L7.21798 8.50001H2.62998C3.16647 7.06834 4.02321 5.77829 5.13471 4.72849C6.24621 3.6787 7.58304 2.89695 9.04298 2.44301L9.04198 2.44401ZM12 2.00201C13.319 2.00201 14.646 4.54401 15.214 8.18501L15.261 8.50001H8.73898C9.27998 4.69101 10.644 2.00201 12 2.00201ZM22.5 17C22.5 15.8065 22.0259 14.6619 21.182 13.818C20.338 12.9741 19.1935 12.5 18 12.5C16.8065 12.5 15.6619 12.9741 14.818 13.818C13.9741 14.6619 13.5 15.8065 13.5 17C13.5 18.863 14.92 20.815 17.7 22.9C17.7865 22.9649 17.8918 23 18 23C18.1082 23 18.2134 22.9649 18.3 22.9C21.08 20.815 22.5 18.863 22.5 17ZM16.5 17C16.5 16.6022 16.658 16.2207 16.9393 15.9394C17.2206 15.658 17.6022 15.5 18 15.5C18.3978 15.5 18.7793 15.658 19.0606 15.9394C19.3419 16.2207 19.5 16.6022 19.5 17C19.5 17.3978 19.3419 17.7794 19.0606 18.0607C18.7793 18.342 18.3978 18.5 18 18.5C17.6022 18.5 17.2206 18.342 16.9393 18.0607C16.658 17.7794 16.5 17.3978 16.5 17Z" fill="#9F9F9F"/>
</svg>
